<svg width="234" height="43" viewBox="0 0 234 43" fill="none" xmlns="http://www.w3.org/2000/svg">
	<g clip-path="url(#clip0_201_36)">
		<path d="M18.5533 20.8147C18.1018 20.1126 17.472 19.5442 16.7289 19.1678C15.9858 18.7915 15.1562 18.621 14.3257 18.6738H10.6536C9.89459 18.7164 9.13953 18.5368 8.48018 18.1568C7.82083 17.7767 7.28555 17.2126 6.93936 16.5329L4.48129 12.2511H20.1296C20.1296 12.2511 21.114 9.04277 23.6627 9.04277H31.4114C32.2104 9.04332 32.9785 8.73266 33.554 8.17615C34.1296 7.61964 34.4678 6.86065 34.4976 6.05884V-0.00604248L54.5789 34.9398C55.986 37.3885 58.0108 39.4217 60.4494 40.8346C62.888 42.2475 65.6543 42.9902 68.4697 42.9879H29.9498V35.8374C29.9498 33.5549 29.0469 31.3659 27.4397 29.752C25.8325 28.138 23.6527 27.2313 21.3798 27.2313H15.5336C14.7779 27.2681 14.0276 27.0858 13.3722 26.7062C12.7169 26.3266 12.1841 25.7657 11.8374 25.0904L10.6295 22.9495H19.7612L18.5533 20.8147Z" fill="white"/>
		<path d="M5.78565 20.4629C15.0744 18.7648 16.9527 21.6759 16.9527 21.6759C12.1211 19.7776 10.3092 22.6038 5.84604 23.5985C2.22235 24.4172 -0.29612 21.1725 0.0179334 18.3402C1.10504 19.9231 3.89529 20.8086 5.78565 20.4629Z" fill="white"/>
		<path d="M82.0223 9.06702H74.2495C74.0012 9.06702 73.7631 9.16605 73.5875 9.34235C73.412 9.51864 73.3134 9.75776 73.3134 10.0071V34.1574H77.6678C77.7928 34.1574 77.9126 34.1076 78.0009 34.0189C78.0893 33.9302 78.1389 33.8098 78.1389 33.6844V27.2617H81.9679C83.1576 27.2652 84.3364 27.0335 85.4368 26.5796C86.5373 26.1257 87.538 25.4586 88.3817 24.6164C89.2255 23.7742 89.8958 22.7733 90.3544 21.6709C90.8129 20.5686 91.0508 19.3863 91.0544 18.1916C91.0579 16.997 90.8271 15.8133 90.3752 14.7082C89.9232 13.6031 89.2589 12.5982 88.4202 11.7509C87.5815 10.9036 86.5848 10.2304 85.487 9.76995C84.3893 9.30946 83.212 9.0706 82.0223 9.06702V9.06702ZM81.6781 22.7615H78.1389V13.5672H81.6781C82.2792 13.5676 82.8745 13.6869 83.4297 13.9183C83.985 14.1497 84.4894 14.4886 84.9142 14.9158C85.3391 15.343 85.676 15.85 85.9056 16.4079C86.1353 16.9658 86.2534 17.5637 86.253 18.1674C86.2526 18.7711 86.1338 19.3688 85.9033 19.9264C85.6729 20.484 85.3354 20.9906 84.91 21.4172C84.4846 21.8438 83.9797 22.1821 83.4241 22.4127C82.8686 22.6434 82.2732 22.7619 81.672 22.7615H81.6781Z" fill="white"/>
		<path d="M152.388 13.6157V34.1635H156.616C156.741 34.1635 156.861 34.1137 156.949 34.0249C157.037 33.9362 157.087 33.8159 157.087 33.6904V9.06702L153.959 10.8865C153.462 11.1402 153.05 11.5331 152.771 12.0175C152.492 12.5019 152.359 13.057 152.388 13.6157V13.6157Z" fill="white"/>
		<path d="M131.311 16.9756C128.985 16.9756 127.445 18.0066 126.588 19.7958V16.9756H122.402C122.277 16.9756 122.158 17.0254 122.069 17.1142C121.981 17.2029 121.931 17.3232 121.931 17.4487V34.1635H126.159C126.284 34.1635 126.404 34.1136 126.492 34.0249C126.58 33.9362 126.63 33.8159 126.63 33.6904V26.0487C126.63 22.8525 127.065 21.5424 129.565 21.5424C130.106 21.573 130.643 21.4454 131.113 21.1752C131.582 20.905 131.964 20.5037 132.21 20.0202L133.962 16.9877H131.311V16.9756Z" fill="white"/>
		<path d="M115.705 10.8804L112.576 12.6998C112.081 12.9557 111.67 13.3503 111.394 13.8357C111.117 14.3212 110.987 14.8767 111.018 15.4351V26.7097C111.018 32.3137 112.8 34.1695 118.265 34.1695H118.948V30.4457C118.946 30.2675 118.876 30.0967 118.753 29.969C118.629 29.8414 118.461 29.7666 118.283 29.7603C116.019 29.6876 115.735 29.1538 115.735 26.6794V21.221H116.508C117.002 21.2434 117.493 21.1227 117.921 20.8733C118.349 20.6239 118.697 20.2562 118.924 19.8139L120.542 16.9938H115.711V10.9289L115.705 10.8804Z" fill="white"/>
		<path d="M141.433 16.6481C139.672 16.6481 137.951 17.1724 136.487 18.1547C135.023 19.137 133.882 20.5331 133.208 22.1667C132.534 23.8002 132.358 25.5976 132.702 27.3317C133.045 29.0659 133.893 30.6587 135.138 31.909C136.383 33.1592 137.969 34.0106 139.696 34.3556C141.423 34.7005 143.213 34.5235 144.839 33.8469C146.466 33.1702 147.856 32.0244 148.835 30.5543C149.813 29.0842 150.335 27.3558 150.335 25.5877C150.335 23.2168 149.397 20.9429 147.728 19.2664C146.058 17.5899 143.794 16.6481 141.433 16.6481V16.6481ZM141.433 30.0575C140.552 30.0575 139.692 29.7954 138.96 29.3042C138.228 28.8131 137.657 28.115 137.32 27.2982C136.984 26.4815 136.895 25.5827 137.067 24.7157C137.239 23.8486 137.663 23.0522 138.285 22.4271C138.908 21.802 139.701 21.3762 140.564 21.2038C141.428 21.0313 142.323 21.1198 143.136 21.4581C143.949 21.7964 144.645 22.3693 145.134 23.1044C145.623 23.8395 145.884 24.7037 145.884 25.5877C145.879 26.77 145.408 27.9023 144.574 28.7366C143.74 29.5709 142.61 30.0393 141.433 30.0393V30.0575Z" fill="white"/>
		<path d="M220.876 23.4347C218.309 22.9192 217.319 22.6463 217.319 21.8882C217.319 21.1301 218.001 20.4811 219.541 20.4811C220.408 20.4568 221.254 20.7451 221.927 21.2938C222.255 21.5755 222.655 21.7599 223.082 21.8264C223.508 21.8928 223.945 21.8386 224.343 21.6698L226.825 20.6206C225.617 18.1947 223.401 16.636 219.578 16.636C215.35 16.5693 212.56 19.1468 212.56 22.0337C212.56 25.709 215.64 26.7765 218.72 27.3284C220.707 27.7044 222.38 27.9834 222.38 28.9113C222.38 29.7361 221.559 30.4578 220.019 30.4578C219.509 30.4764 219.001 30.3908 218.526 30.2063C218.05 30.0218 217.617 29.7421 217.252 29.3844C216.932 29.0465 216.519 28.8115 216.065 28.7089C215.611 28.6064 215.138 28.6409 214.704 28.8082L211.98 29.8756C213.188 32.908 215.712 34.5152 219.831 34.5152C224.76 34.582 227.079 31.2827 227.079 28.7718C227.085 25.054 223.763 24.023 220.876 23.4347Z" fill="white"/>
		<path d="M205.445 17.9156V34.1635H209.673C209.798 34.1635 209.918 34.1136 210.006 34.0249C210.094 33.9362 210.144 33.8159 210.144 33.6904V16.9756H206.381C206.133 16.9756 205.895 17.0746 205.719 17.2509C205.544 17.4272 205.445 17.6663 205.445 17.9156V17.9156Z" fill="white"/>
		<path d="M207.795 14.1615C209.196 14.1615 210.331 13.0211 210.331 11.6143C210.331 10.2075 209.196 9.06702 207.795 9.06702C206.394 9.06702 205.258 10.2075 205.258 11.6143C205.258 13.0211 206.394 14.1615 207.795 14.1615Z" fill="white"/>
		<path d="M231.463 14.1615C232.864 14.1615 234 13.0211 234 11.6143C234 10.2075 232.864 9.06702 231.463 9.06702C230.062 9.06702 228.927 10.2075 228.927 11.6143C228.927 13.0211 230.062 14.1615 231.463 14.1615Z" fill="white"/>
		<path d="M229.12 17.9156V34.1635H233.348C233.473 34.1635 233.593 34.1136 233.681 34.0249C233.769 33.9362 233.819 33.8159 233.819 33.6904V16.9756H230.056C229.933 16.9756 229.812 16.9999 229.698 17.0471C229.584 17.0944 229.481 17.1636 229.394 17.2509C229.307 17.3382 229.238 17.4418 229.191 17.5559C229.144 17.67 229.12 17.7922 229.12 17.9156V17.9156Z" fill="white"/>
		<path d="M179.759 8.72736C177.221 8.72736 174.74 9.48321 172.629 10.8994C170.519 12.3155 168.874 14.3283 167.902 16.6833C166.931 19.0382 166.677 21.6295 167.172 24.1295C167.667 26.6295 168.89 28.9259 170.684 30.7283C172.479 32.5307 174.766 33.7582 177.256 34.2555C179.745 34.7527 182.326 34.4975 184.671 33.5221C187.016 32.5466 189.02 30.8947 190.43 28.7753C191.841 26.6559 192.593 24.1642 192.593 21.6152C192.593 18.1972 191.241 14.9191 188.834 12.5021C186.427 10.0852 183.163 8.72736 179.759 8.72736V8.72736ZM179.759 29.7967C178.148 29.7967 176.573 29.3169 175.233 28.4179C173.893 27.5189 172.849 26.2411 172.232 24.7462C171.616 23.2512 171.454 21.6061 171.769 20.0191C172.083 18.432 172.859 16.9742 173.998 15.83C175.138 14.6858 176.589 13.9066 178.17 13.5909C179.75 13.2752 181.388 13.4372 182.877 14.0565C184.366 14.6757 185.638 15.7244 186.534 17.0698C187.429 18.4153 187.907 19.9971 187.907 21.6152C187.907 22.6896 187.696 23.7535 187.286 24.7462C186.877 25.7388 186.277 26.6407 185.52 27.4004C184.764 28.1602 183.866 28.7628 182.877 29.174C181.889 29.5851 180.829 29.7967 179.759 29.7967Z" fill="white"/>
		<path d="M200.106 13.6156C200.647 13.6462 201.184 13.5186 201.654 13.2484C202.123 12.9782 202.505 12.5769 202.752 12.0934L204.503 9.06091H199.134C197.947 9.06091 196.809 9.53439 195.97 10.3772C195.13 11.22 194.659 12.3631 194.659 13.555V34.497C195.903 34.497 197.097 34.0005 197.977 33.1168C198.857 32.233 199.351 31.0344 199.351 29.7846V21.1725C199.846 21.1956 200.337 21.0753 200.765 20.8258C201.194 20.5762 201.542 20.2081 201.767 19.7654L203.38 16.9574H200.964C200.421 16.9527 199.881 17.0241 199.357 17.1697V14.3616C199.357 14.2629 199.376 14.165 199.413 14.0738C199.45 13.9825 199.506 13.8997 199.575 13.8301C199.645 13.7606 199.728 13.7058 199.819 13.669C199.91 13.6322 200.008 13.614 200.106 13.6156V13.6156Z" fill="white"/>
		<path d="M100.721 16.6481C98.4778 16.5897 96.2946 17.3776 94.6019 18.8563C92.9092 20.3349 91.8298 22.397 91.5768 24.6356C91.4305 26.5548 91.8887 28.4717 92.8863 30.1152C93.884 31.7588 95.3708 33.046 97.1366 33.7948C98.9024 34.5436 100.858 34.7163 102.727 34.2884C104.596 33.8604 106.283 32.8536 107.551 31.41L105.009 29.9363C104.665 29.7407 104.279 29.6344 103.885 29.627C103.49 29.6196 103.1 29.7113 102.75 29.8938C102.085 30.2295 101.35 30.4021 100.606 30.3972C98.1417 30.3972 96.6016 29.1842 96.052 27.2677H108.33C108.579 27.2677 108.817 27.1687 108.992 26.9924C109.168 26.8161 109.266 26.577 109.266 26.3277V25.5513C109.266 20.6752 105.8 16.7755 100.721 16.6481ZM96.2574 23.4832C96.6108 22.6578 97.2026 21.9578 97.9561 21.4735C98.7097 20.9892 99.5906 20.7428 100.485 20.7662C102.472 20.7662 103.94 21.6941 104.556 23.4832H96.2574V23.4832Z" fill="white"/>
	</g>
	<defs>
		<clipPath id="clip0_201_36">
			<rect width="234" height="43" fill="white"/>
		</clipPath>
	</defs>
</svg>
